<?xml version="1.0" encoding="UTF-8"?>
<!-- Created with Inkscape (http://www.inkscape.org/) -->
<svg width="64" height="64" version="1.1" viewBox="0 0 64 64" xmlns="http://www.w3.org/2000/svg" xmlns:xlink="http://www.w3.org/1999/xlink">
 <defs>
  <linearGradient id="linearGradient32166" x1="310.09" x2="237.12" y1="348.5" y2="275.53" gradientTransform="matrix(.99167 0 0 .99167 -168.52 1230.1)" gradientUnits="userSpaceOnUse">
   <stop stop-color="#f4ac23" stop-opacity="0" offset="0"/>
   <stop stop-color="#f4ac23" offset="1"/>
  </linearGradient>
 </defs>
 <g transform="translate(-36.062 -1478)">
  <circle cx="68.062" cy="1510" r="32" fill="#fecf66" stroke-width=".99167"/>
  <path d="m82.474 1500c-16.496 1.5926-19.397 11.697-14.412 26.74l12.584 12.584a32 32 0 0 0 18.6-22.555z" fill="url(#linearGradient32166)"/>
  <path d="m74.115 1509.3v4.4748h-4.4749v4.7445h4.4749v4.4748h4.7444v-4.4748h4.4748v-4.7445h-4.4748v-4.4748z" fill="#00ff00"/>
  <path d="m60.007 1497.6c-1.4729 0-2.9482 0.3363-4.263 1.0014-1.4104 0.7134-2.6396 1.7991-3.4708 3.1435-0.83122 1.3443-1.248 2.9393-1.1853 4.5186 0.06247 1.5793 0.60105 3.1188 1.4333 4.4625 0.83211 1.3438 1.9464 2.4869 3.0641 3.6045l12.477 12.479 4.4217-4.4218v-2.2429h-4.476v-8.0088h4.476v-4.4742h8.007v4.4742h2.0917c0.36821-0.4486 0.71281-0.9159 1.0188-1.4101 0.83211-1.3437 1.3726-2.8832 1.4351-4.4625 0.06248-1.5793-0.35601-3.1743-1.1872-4.5186-0.83122-1.3444-2.0605-2.4301-3.4708-3.1435-2.1036-1.0641-4.6143-1.2933-6.8758-0.6276s-4.249 2.2193-5.4406 4.2533c-1.1917-2.034-3.1792-3.5876-5.4407-4.2533-0.84797-0.2496-1.731-0.3727-2.6147-0.3738z" fill="#ffffff"/>
  <path d="m74.115 1509.3v4.4748h-4.4749v4.7445h4.4749v4.4748h4.7444v-4.4748h4.4748v-4.7445h-4.4748v-4.4748z" fill="#ffffff"/>
 </g>
</svg>
