<?xml version="1.0" encoding="UTF-8"?>
<!-- Created with Inkscape (http://www.inkscape.org/) -->
<svg width="64" height="64" version="1.1" viewBox="0 0 64 64" xmlns="http://www.w3.org/2000/svg" xmlns:xlink="http://www.w3.org/1999/xlink">
 <defs>
  <radialGradient id="radialGradient5494" cx="746.65" cy="533.53" r="24.724" gradientTransform="matrix(1.2161e-7 -.56662 .81786 0 -355.41 1017.7)" gradientUnits="userSpaceOnUse">
   <stop stop-color="#f4ac23" stop-opacity="0" offset="0"/>
   <stop stop-color="#f4ac23" offset="1"/>
  </radialGradient>
 </defs>
 <g transform="matrix(.99166 0 0 .99167 -35.762 -547.54)">
  <ellipse cx="68.331" cy="584.41" rx="32.269" ry="32.269" fill="#fecf66"/>
  <path d="m72.244 573.64-9.3164 4.6172-3.3418-3.3418-5.998 5.998 3.0586 3.0586-6.4277 9.3887 22.941 22.941a32.269 32.269 0 0 0 26.506-24.516l-16.707-16.707-6.5801 2.6953z" fill="url(#radialGradient5494)"/>
  <path d="m68.331 572.04a5.5885 5.5885 0 0 0-4.8391 2.7937 5.5885 5.5885 0 0 0 0 5.5886 5.5885 5.5885 0 0 0 4.8391 2.7949zm1e-3 0v11.177a5.5885 5.5885 0 0 0 4.8391-2.7949 5.5885 5.5885 0 0 0 0-5.5886 5.5885 5.5885 0 0 0-4.8391-2.7937zm-11.6 1.7691a4.2466 4.2466 0 0 0-4.2473 4.246 4.2466 4.2466 0 0 0 4.2473 4.2473 4.2466 4.2466 0 0 0 4.246-4.2473 4.2466 4.2466 0 0 0-4.246-4.246zm23.199 0a4.2466 4.2466 0 0 0-4.246 4.246 4.2466 4.2466 0 0 0 4.246 4.2473 4.2466 4.2466 0 0 0 4.2473-4.2473 4.2466 4.2466 0 0 0-4.2473-4.246zm-23.228 9.8636c-3.459 0-7.2208 1.1702-7.07 3.759l0.18423 5.0359c0.0243 0.66501 0.53578 1.2012 1.2012 1.2012h7.4498l-0.17414-4.7306c-0.0632-1.0846 0.31135-2.0963 0.94258-2.8719 0.54823-0.67366 1.2674-1.1917 2.0782-1.6038-1.3178-0.53509-2.9976-0.78991-4.6119-0.78991zm23.257 0c-1.6144 0-3.2941 0.25482-4.612 0.78991 0.81086 0.41203 1.53 0.93011 2.0782 1.6038 0.63124 0.77564 1.0058 1.7873 0.94258 2.8719l-0.17414 4.7306h7.4498c0.66546 0 1.1769-0.53624 1.2012-1.2012l0.18422-5.0359c0.15088-2.5888-3.611-3.759-7.07-3.759zm-11.629 0.43786c-0.0348 0-0.07 2e-3 -0.10473 2e-3 -0.23829 1e-3 -0.47725 5e-3 -0.71671 0.0151-6.4e-4 3e-5 -2e-3 -4e-5 -2e-3 0-3e-3 1.2e-4 -5e-3 -1.3e-4 -9e-3 0-0.26981 0.0115-0.53988 0.0288-0.80882 0.0518-8e-3 6.5e-4 -0.0151 2e-3 -0.0227 2e-3 -0.27012 0.0233-0.5396 0.0522-0.8063 0.0871-0.27127 0.0355-0.5399 0.0774-0.80504 0.12492-0.26514 0.0476-0.52718 0.10042-0.78359 0.16025-0.22645 0.0529-0.44725 0.11284-0.66498 0.1754-0.0554 0.0159-0.11052 0.0314-0.1653 0.0479-0.21747 0.0657-0.43098 0.13498-0.63721 0.21072-0.23109 0.0849-0.45424 0.1762-0.66877 0.27382-0.20014 0.091-0.39186 0.18919-0.57539 0.29147-0.1112 0.062-0.22106 0.12564-0.32555 0.1918-0.0923 0.0586-0.18198 0.11866-0.26876 0.18044-0.0867 0.0618-0.17152 0.12546-0.25236 0.19054-0.40388 0.32518-0.73155 0.69151-0.96277 1.1003-0.0926 0.16364-0.16932 0.33375-0.22966 0.51104-0.0906 0.26629-0.1434 0.54785-0.15393 0.84542-3e-3 0.099-3e-3 0.19904 2e-3 0.30157l0.22586 6.1589 9e-3 0.2246v1e-3c4e-3 0.10537 0.0181 0.20737 0.0404 0.30662 0.0224 0.0992 0.053 0.19531 0.0921 0.28644 0.0392 0.0912 0.087 0.1777 0.14133 0.25867 0.0544 0.0809 0.11513 0.15579 0.18296 0.2246 0.13305 0.13497 0.29121 0.24506 0.46688 0.32177 3e-3 1e-3 5e-3 4e-3 9e-3 5e-3 3.5e-4 1.5e-4 6.5e-4 -1.5e-4 1e-3 0 2e-3 1e-3 5e-3 1e-3 8e-3 2e-3 0.0877 0.0369 0.17925 0.0661 0.27507 0.0858 0.0492 0.01 0.0991 0.0176 0.15015 0.0227 0.0511 5e-3 0.10247 8e-3 0.15522 8e-3h1e-3 14.41c0.84345 0 1.4909-0.68014 1.5218-1.523l0.2347-6.3835c0.19124-3.2812-4.5773-4.7646-8.9614-4.7646v1e-3h-1e-3z" fill="#ffffff" stroke-width=".66866"/>
 </g>
</svg>
