<?xml version="1.0" encoding="UTF-8"?>
<!-- Created with Inkscape (http://www.inkscape.org/) -->
<svg width="64" height="64" version="1.1" viewBox="0 0 64 64" xmlns="http://www.w3.org/2000/svg" xmlns:xlink="http://www.w3.org/1999/xlink">
 <defs>
  <linearGradient id="linearGradient29836" x1="-388.64" x2="-418.78" y1="288.59" y2="258.45" gradientTransform="translate(571.58 416.88)" gradientUnits="userSpaceOnUse" xlink:href="#linearGradient19264"/>
  <linearGradient id="linearGradient19264">
   <stop stop-color="#f4ac23" stop-opacity="0" offset="0"/>
   <stop stop-color="#f4ac23" offset="1"/>
  </linearGradient>
  <radialGradient id="radialGradient3918" cx="179.07" cy="694.39" r="21.379" gradientTransform="matrix(-.36949 -.36949 .72915 -.72914 -274.31 1259.3)" gradientUnits="userSpaceOnUse" xlink:href="#linearGradient19264"/>
 </defs>
 <g transform="matrix(.99166 0 0 .99166 -121.66 -638.3)">
  <ellipse cx="154.95" cy="675.94" rx="32.269" ry="32.269" fill="#fecf66"/>
  <path d="m167.46 660.15s4.5357 7.601 2.4648 16.188c-2.4442 10.135-14.973 12.273-14.973 12.273v6.0449l-10.754 1.377 12.08 12.082a32.269 32.269 0 0 0 2.3418-0.16797c0.96966-0.12681 1.9358-0.29293 2.8984-0.49609a32.269 32.269 0 0 0 0.68164-0.14844c0.91795-0.21116 1.8308-0.45462 2.7344-0.73242a32.269 32.269 0 0 0 22.021-26.924z" fill="url(#linearGradient29836)"/>
  <circle cx="154.95" cy="672.21" r="16.12" fill="none" stroke="#ffffff" stroke-linecap="round" stroke-width="2.5"/>
  <g fill="#ffffff">
   <path d="m146.25 662.71c-0.20263 0-0.40533 0.0778-0.56059 0.2331-0.31052 0.31052-0.31052 0.81065 0 1.1212l7.3747 7.3747a2.0577 2.0577 0 0 1 1.1212-1.1212l-7.3748-7.3747c-0.15526-0.15526-0.35796-0.2331-0.56058-0.2331zm17.407 0c-0.20266 0-0.40532 0.0778-0.56058 0.2331l-7.3624 7.3624a2.0577 2.0577 0 0 1 1.1212 1.1212l7.3624-7.3624c0.31051-0.31052 0.31051-0.81065 0-1.1212-0.15526-0.15526-0.35792-0.2331-0.56059-0.2331zm-10.593 10.266-7.3747 7.3748c-0.31052 0.31052-0.31052 0.81065 0 1.1212 0.31052 0.31052 0.81065 0.31052 1.1212 0l6.2986-6.2986v-2.1189a2.0577 2.0577 0 0 1-0.045-0.0784zm3.7789 0a2.0577 2.0577 0 0 1-0.045 0.0784v2.1189l6.2986 6.2986c0.31051 0.31052 0.81065 0.31052 1.1212 0 0.31051-0.31052 0.31051-0.81065 0-1.1212z"/>
   <rect x="144.42" y="693.76" width="21.055" height="2.3002" ry="1.1501"/>
   <rect transform="rotate(-90)" x="-694.65" y="153.66" width="23.627" height="2.5811" ry="1.2905"/>
  </g>
  <g fill="none" stroke="#ffffff" stroke-linecap="round">
   <path d="m164.78 694.91h-19.661" stroke-width="2.899"/>
   <path d="m154.95 672.21v22.442" stroke-width="2.899"/>
   <path d="m163.84 681.1-17.783-17.783" stroke-width="2.1658"/>
   <path d="m146.06 681.1 17.783-17.783" stroke-width="2.1658"/>
  </g>
  <g fill="#ffffff">
   <circle cx="154.95" cy="672.21" r="3.9576"/>
   <circle cx="156.26" cy="662.21" r="3.0729"/>
   <circle cx="159.56" cy="682.87" r="2.8784"/>
   <circle cx="165.22" cy="670.94" r="3.0729"/>
   <circle cx="144.6" cy="668.57" r="3.0729"/>
   <circle cx="144.58" cy="675.69" r="3.0729"/>
  </g>
  <ellipse cx="154.95" cy="675.94" rx="32.269" ry="32.269" fill="#fecf66"/>
  <path d="m167.46 660.15s4.5357 7.601 2.4648 16.188c-2.4442 10.135-14.973 12.273-14.973 12.273v6.0449l-10.754 1.377 12.08 12.082a32.269 32.269 0 0 0 2.3418-0.16797c0.96966-0.12681 1.9358-0.29293 2.8984-0.49609a32.269 32.269 0 0 0 0.68164-0.14844c0.91795-0.21116 1.8308-0.45462 2.7344-0.73242a32.269 32.269 0 0 0 22.021-26.924z" fill="url(#radialGradient3918)"/>
  <circle cx="154.95" cy="672.21" r="16.12" fill="none" stroke="#ffffff" stroke-linecap="round" stroke-width="2.5"/>
  <g fill="#ffffff">
   <path d="m146.25 662.71c-0.20263 0-0.40533 0.0778-0.56059 0.2331-0.31052 0.31052-0.31052 0.81065 0 1.1212l7.3747 7.3747a2.0577 2.0577 0 0 1 1.1212-1.1212l-7.3748-7.3747c-0.15526-0.15526-0.35796-0.2331-0.56058-0.2331zm17.407 0c-0.20266 0-0.40532 0.0778-0.56058 0.2331l-7.3624 7.3624a2.0577 2.0577 0 0 1 1.1212 1.1212l7.3624-7.3624c0.31051-0.31052 0.31051-0.81065 0-1.1212-0.15526-0.15526-0.35792-0.2331-0.56059-0.2331zm-10.593 10.266-7.3747 7.3748c-0.31052 0.31052-0.31052 0.81065 0 1.1212 0.31052 0.31052 0.81065 0.31052 1.1212 0l6.2986-6.2986v-2.1189a2.0577 2.0577 0 0 1-0.045-0.0784zm3.7789 0a2.0577 2.0577 0 0 1-0.045 0.0784v2.1189l6.2986 6.2986c0.31051 0.31052 0.81065 0.31052 1.1212 0 0.31051-0.31052 0.31051-0.81065 0-1.1212z"/>
   <rect x="144.42" y="693.76" width="21.055" height="2.3002" ry="1.1501"/>
   <rect transform="rotate(-90)" x="-694.65" y="153.66" width="23.627" height="2.5811" ry="1.2905"/>
  </g>
  <g fill="none" stroke="#ffffff" stroke-linecap="round">
   <path d="m164.78 694.91h-19.661" stroke-width="2.899"/>
   <path d="m154.95 672.21v22.442" stroke-width="2.899"/>
   <path d="m163.84 681.1-17.783-17.783" stroke-width="2.1658"/>
   <path d="m146.06 681.1 17.783-17.783" stroke-width="2.1658"/>
  </g>
  <g fill="#ffffff">
   <circle cx="154.95" cy="672.21" r="3.9576"/>
   <circle cx="156.26" cy="662.21" r="3.0729"/>
   <circle cx="159.56" cy="682.87" r="2.8784"/>
   <circle cx="165.22" cy="670.94" r="3.0729"/>
   <circle cx="144.6" cy="668.57" r="3.0729"/>
   <circle cx="144.58" cy="675.69" r="3.0729"/>
  </g>
 </g>
</svg>
