<?xml version="1.0" encoding="UTF-8"?>
<!-- Created with Inkscape (http://www.inkscape.org/) -->
<svg width="64" height="64" version="1.1" viewBox="0 0 64 64" xmlns="http://www.w3.org/2000/svg" xmlns:xlink="http://www.w3.org/1999/xlink">
 <defs>
  <linearGradient id="linearGradient31682" x1="-290.49" x2="-339.08" y1="86.947" y2="38.355" gradientTransform="translate(114 1442.9)" gradientUnits="userSpaceOnUse">
   <stop stop-color="#f4ac23" stop-opacity="0" offset="0"/>
   <stop stop-color="#f4ac23" offset="1"/>
  </linearGradient>
 </defs>
 <g transform="translate(245.6 -1454.9)">
  <circle cx="-213.6" cy="1486.9" r="32" fill="#fecf66" stroke-width=".99166"/>
  <path d="m-213.03 1469.5-18.4 18 3.2012 3.1954v12.496l15.617 15.617a32 32 0 0 0 28.695-20.195z" fill="url(#linearGradient31682)"/>
  <g transform="translate(115.39 1445.6)">
   <path d="m-329.47 29.652-14.143 14.143v13.809h21.854v-2.8652h-4.5117v-8.0762h4.5117v-4.5137h4.7852zm11.004 15.789v4.5117h-4.5137v1.4922h4.5137v4.5137h1.4922v-4.5137h1.6465v-1.4922h-1.6465v-4.5117z" fill="#ffffff"/>
   <path d="m-329.47 22.854-17.344 17.366a1.1954 1.1954 0 0 0 2e-3 1.6907 1.1954 1.1954 0 0 0 1.6883-0.0025l15.654-15.673 15.676 15.676a1.1954 1.1954 0 0 0 1.6907 0 1.1954 1.1954 0 0 0 0-1.6907z" color="#000000" fill="#ffffff" stroke-linecap="round" stroke-width="1.2438" style="-inkscape-stroke:none"/>
   <path d="m-320.11 43.795v4.5124h-4.5124v4.7843h4.5124v4.5124h4.7843v-4.5124h4.5124v-4.7843h-4.5124v-4.5124z" color="#000000" fill="#000000" stroke-width="3.292" style="-inkscape-stroke:none"/>
   <path d="m-320.11 43.795v4.5124h-4.5124v4.7843h4.5124v4.5124h4.7843v-4.5124h4.5124v-4.7843h-4.5124v-4.5124z" fill="#ffffff"/>
  </g>
 </g>
</svg>
