<?xml version="1.0" encoding="UTF-8"?>
<!-- Created with Inkscape (http://www.inkscape.org/) -->
<svg width="64" height="64" version="1.1" viewBox="0 0 64 64" xmlns="http://www.w3.org/2000/svg" xmlns:xlink="http://www.w3.org/1999/xlink">
 <defs>
  <linearGradient id="linearGradient7638" x1="167.52" x2="186.68" y1="848.6" y2="867.76" gradientTransform="translate(-149.76 -807.94)" gradientUnits="userSpaceOnUse">
   <stop stop-color="#f4ac23" offset="0"/>
   <stop stop-color="#f4ac23" stop-opacity="0" offset="1"/>
  </linearGradient>
 </defs>
 <g transform="translate(27.078 2.017)">
  <ellipse cx="4.9223" cy="29.983" rx="32" ry="32" fill="#fecf66" stroke-width=".992"/>
  <path d="m19.339 10.597c0.33085 8.0353-3.0567 9.2188-9.0547 5.5957l-2.9648-2.9629-18.426 33.537 15.154 15.154a32 32 0 0 0 0.875 0.0625 32 32 0 0 0 32-32 32 32 0 0 0-0.0605-1.8633z" fill="url(#linearGradient7638)"/>
  <path d="m-11.106 13.23v33.537h21.479v-25.902c-1.2177-0.92753-2.1532-2.1631-2.6855-3.5703-0.0532-0.14065-0.1034-0.28185-0.14844-0.42578-0.0452-0.14454-0.0844-0.28994-0.1211-0.4375-0.0366-0.14694-0.0697-0.2937-0.0976-0.44336-0.0559-0.29996-0.0937-0.60481-0.11328-0.91406-0.01-0.1543-0.0153-0.30865-0.0156-0.46485l-2e-3 -8e-3 2e-3 -8e-3c1e-3 -0.22038 0.0142-0.4389 0.0332-0.65625 3e-3 -0.0275 7e-3 -0.0546 0.01-0.082 0.0206-0.21009 0.049-0.41873 0.0859-0.625z" fill="#ffffff" stroke-linecap="square" stroke-width="1.2991"/>
  <g stroke-linecap="square">
   <path d="m-8.7704 16.111v1.7383h16.695c-0.25916-0.5516-0.45493-1.1335-0.57813-1.7383zm4.3008 19.264v1.4551h14.842v-1.4551zm0 2.9102v1.457h14.842v-1.457zm0 2.9121v1.4551h14.842v-1.4551z" fill="#d2d2d2" stroke-width=".8075"/>
   <path d="m-8.7704 19.874v0.2832h18.332c-0.0934-0.0923-0.18474-0.18681-0.27344-0.2832zm6.9356 2.5527v0.2832h12.207v-0.2832zm0 1.6797v0.2832h12.207v-0.2832zm0 1.6816v0.2832h12.207v-0.2832zm0 1.6816v0.2832h12.207v-0.2832zm0 1.6797v0.2832h12.207v-0.2832zm0 1.6816v0.2832h12.207v-0.2832z" fill="#95b5dc" stroke-width=".32542"/>
   <rect x="-8.7712" y="22.426" width="5.863" height="1.9643" fill="#d2d2d2" stroke-width=".44671"/>
  </g>
  <g stroke-linecap="square">
   <path d="m-8.7659 35.379v1.4564h1.6211v-1.4564z" color="#000000" fill="#95b5dc" stroke-width=".86785" style="-inkscape-stroke:none"/>
   <rect x="-8.7712" y="25.788" width="5.863" height="1.9643" fill="#d2d2d2" stroke-width=".44671"/>
   <rect x="-8.7712" y="29.15" width="5.863" height="1.9643" fill="#d2d2d2" stroke-width=".44671"/>
   <path d="m-8.7659 38.285v1.4564h1.6211v-1.4564z" color="#000000" fill="#95b5dc" stroke-width=".86785" style="-inkscape-stroke:none"/>
   <path d="m-8.7659 41.196v1.4564h1.6211v-1.4564z" color="#000000" fill="#95b5dc" stroke-width=".86785" style="-inkscape-stroke:none"/>
  </g>
  <path d="m18.076 9.5986v5.0457c0 1.6209-1.3141 2.935-2.935 2.935-1.6209 0-2.935-1.3141-2.935-2.935v-5.0229c-1.7698 1.037-2.8609 2.9309-2.8704 4.982 5e-3 2.1839 1.2349 4.1803 3.1834 5.1667v26.997c0 1.4526 1.1694 2.622 2.622 2.622 1.4526 0 2.622-1.1694 2.622-2.622v-26.986c1.952-0.98813 3.1826-2.9898 3.1833-5.1776-9.5e-4 -2.0593-1.0936-3.9637-2.8704-5.0047z" fill="#6c5353" stroke-width=".79188"/>
  <path d="m18.076 9.5986v5.0457c0 1.6209-1.3141 2.935-2.935 2.935-1.6209 0-2.935-1.3141-2.935-2.935v-5.0229c-1.7698 1.037-2.8609 2.9309-2.8704 4.982 5e-3 2.1839 1.2349 4.1803 3.1834 5.1667v26.997c0 1.4526 1.1694 2.622 2.622 2.622 1.4526 0 2.622-1.1694 2.622-2.622v-26.986c1.952-0.98813 3.1826-2.9898 3.1833-5.1776-9.5e-4 -2.0593-1.0936-3.9637-2.8704-5.0047z" color="#000000" fill="#ffffff" stroke-width="4.292" style="-inkscape-stroke:none"/>
 </g>
</svg>
