<?xml version="1.0" encoding="UTF-8"?>
<!-- Created with Inkscape (http://www.inkscape.org/) -->
<svg width="64" height="64" version="1.1" viewBox="0 0 64 64" xmlns="http://www.w3.org/2000/svg">
 <g transform="translate(456.46 -10.426)">
  <g transform="matrix(.99167 0 0 .99167 -187.79 -99.873)" stroke-width="1.0003">
   <circle cx="-238.66" cy="143.49" r="32.269" fill="#fecf66" stroke-width="1.0003"/>
  </g>
  <path d="m-407.63 21.367-33.652 42.207 10.043 10.043a32 32 0 0 0 6.7832 0.80859 32 32 0 0 0 32-32 32 32 0 0 0-0.68946-6.5742z" fill="#f4ac23"/>
  <rect x="-441.28" y="21.279" width="33.651" height="42.294" fill="#fbc5c5" stroke-linecap="square" stroke-width="1.6518"/>
  <g fill="#b3b3b3" stroke-linecap="square">
   <rect x="-437.98" y="25.534" width="28.229" height="2.1137" stroke-width="1.0168"/>
   <rect x="-437.98" y="33.216" width="6.3997" height="2.3893" stroke-width=".51474"/>
   <rect x="-437.98" y="49.364" width="15.379" height="1.7704" stroke-width=".68685"/>
   <rect x="-437.98" y="52.905" width="22.558" height="1.7704" stroke-width=".83185"/>
   <rect x="-437.98" y="56.445" width="22.558" height="1.7704" stroke-width=".83185"/>
   <rect x="-437.98" y="37.306" width="6.3997" height="2.3893" stroke-width=".51473"/>
   <rect x="-437.98" y="41.395" width="6.3997" height="2.3893" stroke-width=".51474"/>
   <g stroke-width=".32083">
    <rect x="-429.92" y="33.216" width="17.241" height=".34455"/>
    <rect x="-429.92" y="35.261" width="17.241" height=".34455"/>
    <rect x="-429.92" y="37.306" width="17.241" height=".34455"/>
    <rect x="-429.92" y="39.351" width="17.241" height=".34455"/>
    <rect x="-429.92" y="41.395" width="17.241" height=".34455"/>
    <rect x="-429.92" y="43.44" width="17.241" height=".34455"/>
   </g>
  </g>
  <g transform="matrix(.39946 0 0 .39946 -228.9 -3.4966)">
   <rect x="-481.65" y="89.124" width="49.183" height="49.183" ry="3.621" fill="#ffffff"/>
   <g transform="translate(152.78 -161.47)">
    <path d="m-629.94 295c-0.27662-5.4939 1.497-10.99 5.1016-15.24 3.6772-4.3356 9.023-7.0674 14.77-7.3535 0.0737-4e-3 0.14697-4e-3 0.2207-4e-3 0.0738 0 0.14699 3.3e-4 0.22071 4e-3 5.7465 0.28621 11.092 3.0179 14.77 7.3535 3.6046 4.25 5.3782 9.7463 5.1016 15.24h-8.9258c8e-3 -0.0931 0.0253-0.1862 0.0312-0.2793 0.20696-3.2824-0.9118-6.7499-2.9941-9.2051-2.0223-2.3844-5.136-4.2031-8.2031-4.2031s-6.1808 1.8187-8.2031 4.2031c-2.0823 2.4552-3.2011 5.9227-2.9941 9.2051 6e-3 0.0931 0.0233 0.18616 0.0312 0.2793z" color="#000000" fill="#e78726" style="-inkscape-stroke:none"/>
    <path d="m-629.94 255.36c-0.27662 5.4939 1.497 10.99 5.1016 15.24 3.6772 4.3356 9.023 7.0674 14.77 7.3535 0.0737 4e-3 0.14697 4e-3 0.2207 4e-3 0.0738 0 0.14699-3.3e-4 0.22071-4e-3 5.7465-0.28621 11.092-3.0179 14.77-7.3535 3.6046-4.25 5.3782-9.7463 5.1016-15.24h-8.9258c8e-3 0.0931 0.0253 0.1862 0.0312 0.2793 0.20696 3.2824-0.9118 6.7499-2.9941 9.2051-2.0223 2.3844-5.136 4.2031-8.2031 4.2031s-6.1808-1.8187-8.2031-4.2031c-2.0823-2.4552-3.2011-5.9227-2.9941-9.2051 6e-3 -0.0931 0.0233-0.18616 0.0312-0.2793z" color="#000000" fill="#020202" style="-inkscape-stroke:none"/>
    <circle cx="-609.84" cy="260.43" r="4.4386" fill="#e78726"/>
   </g>
  </g>
 </g>
</svg>
