<?xml version="1.0" encoding="UTF-8"?>
<!-- Created with Inkscape (http://www.inkscape.org/) -->
<svg width="64" height="64" version="1.1" viewBox="0 0 64 64" xmlns="http://www.w3.org/2000/svg" xmlns:xlink="http://www.w3.org/1999/xlink">
 <defs>
  <linearGradient id="linearGradient59063" x1="-174.18" x2="-244.08" y1="209.14" y2="139.25" gradientUnits="userSpaceOnUse">
   <stop stop-color="#f4ac23" stop-opacity="0" offset="0"/>
   <stop stop-color="#f4ac23" offset="1"/>
  </linearGradient>
  <clipPath id="clipPath52900">
   <path d="m-206.39 143.49a32.269 32.269 0 0 1-32.269 32.269 32.269 32.269 0 0 1-32.269-32.269 32.269 32.269 0 0 1 32.269-32.269 32.269 32.269 0 0 1 32.269 32.269z" fill="#fecf66"/>
  </clipPath>
 </defs>
 <g transform="matrix(.99167 0 0 .99167 268.67 -110.3)">
  <circle cx="-238.66" cy="143.49" r="32.269" fill="#fecf66"/>
  <path d="m-229.86 186.11-26.312-26.312 1.3554-20.925-2.0765-2.0765 18.08-8.0569 18.468 6.2347 26.954 26.954z" clip-path="url(#clipPath52900)" fill="url(#linearGradient59063)"/>
  <path d="m-238.81 125.49-17.746 8.9512a1.447 1.447 0 0 0-0.64063 1.9434 1.447 1.447 0 0 0 1.9434 0.64062l16.439-8.293 16.734 8.4883a1.447 1.447 0 0 0 1.9453-0.63477 1.447 1.447 0 0 0-0.63672-1.9453zm-8.1543 11.375c-2.8736 0-5.0658 0.64918-6.5449 1.3125-1.4791 0.66331-2.3125 1.3965-2.3125 1.3965l-0.35156 0.31445v19.902h14.363a3.2516 2.764 0 0 0 2.998 1.7051 3.2516 2.764 0 0 0 2.9961-1.7051h14.365v-19.902l-0.35156-0.31445s-0.83539-0.73317-2.3144-1.3965c-1.4791-0.66332-3.6713-1.3125-6.5449-1.3125s-5.0659 0.64918-6.5449 1.3125c-0.68084 0.30534-1.2165 0.62232-1.6055 0.8789-0.38895-0.25658-0.92659-0.57356-1.6074-0.8789-1.4791-0.66332-3.6713-1.3125-6.5449-1.3125zm0 2.1172c2.5568 0 4.4408 0.57136 5.6797 1.127 0.99155 0.44468 1.2398 0.69202 1.4141 0.83398v15.061c-0.17137-0.0876-0.35483-0.17473-0.54883-0.26172-1.4791-0.66332-3.6713-1.3125-6.5449-1.3125-2.8736 0-5.0658 0.64916-6.5449 1.3125-0.194 0.087-0.37551 0.17412-0.54687 0.26172v-15.061c0.17403-0.14179 0.42204-0.3891 1.4141-0.83398 1.2388-0.55559 3.1209-1.127 5.6777-1.127zm16.303 0c2.5568 0 4.4408 0.57136 5.6797 1.127 0.99155 0.44468 1.2398 0.69202 1.4141 0.83398v15.061c-0.17137-0.0876-0.35483-0.17473-0.54883-0.26172-1.4791-0.66332-3.6713-1.3125-6.5449-1.3125s-5.0658 0.64916-6.5449 1.3125c-0.194 0.087-0.37552 0.17412-0.54688 0.26172v-15.061c0.17403-0.14179 0.42205-0.3891 1.4141-0.83398 1.2388-0.55559 3.1209-1.127 5.6777-1.127z" color="#000000" fill="#ffffff" stroke-width=".55721" style="-inkscape-stroke:none"/>
 </g>
</svg>
