<?xml version="1.0" encoding="UTF-8"?>
<!-- Created with Inkscape (http://www.inkscape.org/) -->
<svg width="64" height="64" version="1.1" viewBox="0 0 64 64" xmlns="http://www.w3.org/2000/svg" xmlns:xlink="http://www.w3.org/1999/xlink">
 <defs>
  <linearGradient id="linearGradient13868" x1="626.25" x2="613.49" y1="159" y2="146.24" gradientTransform="translate(-574.68 -81.631)" gradientUnits="userSpaceOnUse">
   <stop stop-color="#f4ac23" stop-opacity="0" offset="0"/>
   <stop stop-color="#f4ac23" offset="1"/>
  </linearGradient>
 </defs>
 <g transform="translate(8.7293 -19.912)">
  <ellipse cx="23.271" cy="51.912" rx="32" ry="32" fill="#fecf66" stroke-width=".992"/>
  <path d="m19.896 30.199-1.9141 2.4726 1.1016 2.1016 2.9316 0.44922v1.2012l-4.5254 2.5879c-6.2617 3.3886-7.8961 8.1936-8.4356 13.334l5.2227 12.527 17.791 17.791a32 32 0 0 0 22.752-25.617l-26.58-26.58z" fill="url(#linearGradient13868)"/>
  <g fill="#ffffff">
   <path d="m23.271 36.372c-8.5648 0-15.539 6.9742-15.539 15.539s6.9742 15.539 15.539 15.539c3.0999 0 5.9881-0.91631 8.416-2.4883h-3.9922v-1.2168c-1.3763 0.51255-2.8656 0.79296-4.4238 0.79296-6.9912 0-12.627-5.6357-12.627-12.627 0-6.9912 5.6357-12.627 12.627-12.627 6.9794 0 12.61 5.617 12.629 12.592h2.9102c-0.0192-8.5486-6.9861-15.504-15.539-15.504zm12.805 19.447v4.4375h-3.3203c-0.23298 0.26468-0.4763 0.51947-0.73047 0.76368h3.8223c0.35936-0.49468 0.69013-1.0108 0.99023-1.5469v-3.6543z" color="#000000" style="-inkscape-stroke:none"/>
   <path d="m9.2227 39.314c-0.2014 0.20138-0.2014 0.52513 0 0.72646l0.8562 0.85626c0.2014 0.20133 0.5251 0.20137 0.7265-2e-5l0.1505-0.15054 0.9654 0.96536 1.3065-1.3064-0.9654-0.96536 0.1505-0.15054c0.2014-0.20132 0.2014-0.52514 1e-4 -0.72646l-0.8563-0.85627c-0.2013-0.20133-0.5252-0.20129-0.7265 2e-5z" stroke-width="2.1358"/>
   <path d="m37.087 39.314c0.2014 0.20138 0.2014 0.52513 0 0.72646l-0.8562 0.85626c-0.2014 0.20133-0.5251 0.20137-0.7265-2e-5l-0.1505-0.15054-0.9654 0.96536-1.3065-1.3064 0.9654-0.96536-0.1505-0.15054c-0.2014-0.20132-0.2014-0.52514-1e-4 -0.72646l0.8563-0.85627c0.2013-0.20133 0.5252-0.20129 0.7265 2e-5z" stroke-width="2.1358"/>
  </g>
  <rect x="17.982" y="30.119" width="10.58" height="5.1039" ry="2.552" fill="none" stroke="#ffffff" stroke-width="1.1747"/>
  <g fill="#ffffff">
   <rect x="22.015" y="33.792" width="2.751" height="4.0369" ry="1.0488"/>
   <circle cx="23.271" cy="51.912" r="2.5239"/>
   <path d="m21.507 48.688c0.54029-0.29776 1.1468-0.45492 1.7637-0.45703 0.61756 2e-3 1.2248 0.15895 1.7656 0.45703v-6.6851c0-0.97761-0.78801-1.7637-1.7656-1.7637-0.97762 0-1.7637 0.78606-1.7637 1.7637z" stroke-width="2.1073"/>
   <path d="m11.599 51.915c0 0.97761 0.78606 1.7637 1.7637 1.7637h6.6914a3.6801 3.6801 0 0 1-0.46289-1.7656 3.6801 3.6801 0 0 1 0.46094-1.7637h-6.6894c-0.97762 0-1.7637 0.78801-1.7637 1.7656z" stroke-width="2.469"/>
   <g>
    <circle cx="23.271" cy="41.499" r="1.2595"/>
    <circle transform="scale(-1)" cx="-23.271" cy="-62.325" r="1.2595"/>
    <path d="m33.685 50.653a1.2595 1.2595 0 0 0-1.2578 1.2227h2.5137a1.2595 1.2595 0 0 0-1.2559-1.2227z"/>
    <circle transform="rotate(-90)" cx="-51.912" cy="12.858" r="1.2595"/>
   </g>
  </g>
  <g transform="translate(-574.68 -81.631)">
   <path d="m600.48 133.54a2.5239 2.5239 0 0 1-2.5239 2.5239 2.5239 2.5239 0 0 1-2.5239-2.5239 2.5239 2.5239 0 0 1 2.5239-2.5239 2.5239 2.5239 0 0 1 2.5239 2.5239z" color="#000000" fill="#ffffff" stroke-width="1.7" style="-inkscape-stroke:none"/>
  </g>
  <g fill="#ffffff">
   <circle transform="rotate(-44.992)" cx="-24.231" cy="43.546" r=".7"/>
   <circle transform="rotate(-22.492)" cx="-2.3439" cy="47.246" r=".7"/>
   <circle transform="rotate(.00819)" cx="19.29" cy="42.289" r=".7"/>
   <circle transform="rotate(45.008)" cx="49.179" cy="10.625" r=".7"/>
   <circle transform="rotate(67.508)" cx="52.88" cy="-11.262" r=".7"/>
   <circle transform="rotate(90.008)" cx="47.922" cy="-32.899" r=".7"/>
   <circle transform="rotate(157.51)" cx="-5.6285" cy="-66.486" r=".7"/>
   <circle transform="rotate(225.01)" cx="-57.152" cy="-29.864" r=".7"/>
   <circle transform="rotate(247.51)" cx="-60.852" cy="-7.9775" r=".7"/>
   <circle transform="rotate(-89.992)" cx="-55.895" cy="13.659" r=".7"/>
  </g>
  <g transform="matrix(.99167 0 0 .99167 -124.78 -355.8)">
   <path d="m160.22 413.09v4.4748h-4.4749v4.7445h4.4749v4.4748h4.7444v-4.4748h4.4748v-4.7445h-4.4748v-4.4748z" color="#000000" fill="#ffffff" stroke-width="3.9761" style="-inkscape-stroke:none"/>
   <path d="m160.22 413.09v4.4748h-4.4749v4.7445h4.4749v4.4748h4.7444v-4.4748h4.4748v-4.7445h-4.4748v-4.4748z" color="#000000" fill="#ffffff" stroke-width="3.069" style="-inkscape-stroke:none"/>
  </g>
 </g>
</svg>
